name C:/MyDriveSym/Projects/mobilecap/Data\Session20210820_0002\mocap\ForceDataProcessed\walking1_forces.mot
datacolumns 19
datarows 29
range 0.69450000 0.70850000
endheader 
time	R_ground_force_vx	R_ground_force_vy	R_ground_force_vz	R_ground_force_px	R_ground_force_py	R_ground_force_pz	R_ground_torque_x	R_ground_torque_y	R_ground_torque_z	L_ground_force_vx	L_ground_force_vy	L_ground_force_vz	L_ground_force_px	L_ground_force_py	L_ground_force_pz	L_ground_torque_x	L_ground_torque_y	L_ground_torque_z	
          0.69450000	         22.13380000	        102.83118600	          2.65839800	          0.36321800	          0.00600000	         -0.15222400	          0.00000000	         -0.98642600	          0.00000000	       -120.78081200	        786.90989000	         19.90800300	          0.84399300	          0.00600000	         -0.24529100	          0.00000000	         -0.12790800	          0.00000000	
          0.69500000	         21.79535000	        101.13439400	          2.62547100	          0.36373800	          0.00600000	         -0.15226400	          0.00000000	         -0.97472200	          0.00000000	       -120.71316700	        787.66527900	         20.02268900	          0.84406500	          0.00600000	         -0.24530500	          0.00000000	         -0.13719300	          0.00000000	
          0.69550000	         21.45937600	         99.45223200	          2.59264300	          0.36426500	          0.00600000	         -0.15230400	          0.00000000	         -0.96306600	          0.00000000	       -120.63989900	        788.40318500	         20.13638400	          0.84413800	          0.00600000	         -0.24531800	          0.00000000	         -0.14641000	          0.00000000	
          0.69600000	         21.12589000	         97.78468200	          2.55992300	          0.36480200	          0.00600000	         -0.15234500	          0.00000000	         -0.95145900	          0.00000000	       -120.56104100	        789.12368500	         20.24908800	          0.84420900	          0.00600000	         -0.24533100	          0.00000000	         -0.15555800	          0.00000000	
          0.69650000	         20.79490400	         96.13172000	          2.52731700	          0.36534900	          0.00600000	         -0.15238600	          0.00000000	         -0.93990300	          0.00000000	       -120.47662200	        789.82685700	         20.36080400	          0.84428000	          0.00600000	         -0.24534300	          0.00000000	         -0.16463500	          0.00000000	
          0.69700000	         20.46642800	         94.49332600	          2.49483300	          0.36590500	          0.00600000	         -0.15242700	          0.00000000	         -0.92839900	          0.00000000	       -120.38667600	        790.51278000	         20.47153400	          0.84435000	          0.00600000	         -0.24535600	          0.00000000	         -0.17364000	          0.00000000	
          0.69750000	         20.14047100	         92.86947500	          2.46247600	          0.36647000	          0.00600000	         -0.15246900	          0.00000000	         -0.91694700	          0.00000000	       -120.29123500	        791.18153700	         20.58127900	          0.84442000	          0.00600000	         -0.24536900	          0.00000000	         -0.18257100	          0.00000000	
          0.69800000	         19.81704400	         91.26014300	          2.43025400	          0.36704700	          0.00600000	         -0.15251100	          0.00000000	         -0.90554800	          0.00000000	       -120.19033200	        791.83320800	         20.69004200	          0.84448900	          0.00600000	         -0.24538100	          0.00000000	         -0.19142700	          0.00000000	
          0.69850000	         19.49615600	         89.66530200	          2.39817300	          0.36763400	          0.00600000	         -0.15255300	          0.00000000	         -0.89420300	          0.00000000	       -120.08400000	        792.46787700	         20.79782500	          0.84455700	          0.00600000	         -0.24539400	          0.00000000	         -0.20020700	          0.00000000	
          0.69900000	         19.17781400	         88.08492700	          2.36623800	          0.36823200	          0.00600000	         -0.15259600	          0.00000000	         -0.88291300	          0.00000000	       -119.97227300	        793.08562900	         20.90463000	          0.84462500	          0.00600000	         -0.24540600	          0.00000000	         -0.20891000	          0.00000000	
          0.69950000	         18.86202700	         86.51898700	          2.33445600	          0.36884100	          0.00600000	         -0.15264000	          0.00000000	         -0.87167900	          0.00000000	       -119.85518700	        793.68655000	         21.01046000	          0.84469200	          0.00600000	         -0.24541800	          0.00000000	         -0.21753400	          0.00000000	
          0.70000000	         18.54880100	         84.96745300	          2.30283300	          0.36946200	          0.00600000	         -0.15268400	          0.00000000	         -0.86050200	          0.00000000	       -119.73277600	        794.27072700	         21.11531800	          0.84475800	          0.00600000	         -0.24543000	          0.00000000	         -0.22607800	          0.00000000	
          0.70050000	         18.23814400	         83.43029400	          2.27137400	          0.37009500	          0.00600000	         -0.15272800	          0.00000000	         -0.84938200	          0.00000000	       -119.60507600	        794.83824700	         21.21920600	          0.84482400	          0.00600000	         -0.24544200	          0.00000000	         -0.23454000	          0.00000000	
          0.70100000	         17.93006200	         81.90747800	          2.24008500	          0.37074200	          0.00600000	         -0.15277300	          0.00000000	         -0.83832100	          0.00000000	       -119.47212300	        795.38920100	         21.32212700	          0.84488900	          0.00600000	         -0.24545400	          0.00000000	         -0.24292000	          0.00000000	
          0.70150000	         17.62456000	         80.39897200	          2.20897000	          0.37140100	          0.00600000	         -0.15281900	          0.00000000	         -0.82731900	          0.00000000	       -119.33395300	        795.92367800	         21.42408600	          0.84495400	          0.00600000	         -0.24546500	          0.00000000	         -0.25121700	          0.00000000	
          0.70200000	         17.32164300	         78.90474100	          2.17803400	          0.37207400	          0.00600000	         -0.15286500	          0.00000000	         -0.81637700	          0.00000000	       -119.19060300	        796.44177000	         21.52508400	          0.84501800	          0.00600000	         -0.24547700	          0.00000000	         -0.25942800	          0.00000000	
          0.70250000	         17.02131600	         77.42475100	          2.14728300	          0.37276100	          0.00600000	         -0.15291100	          0.00000000	         -0.80549600	          0.00000000	       -119.04211200	        796.94357000	         21.62512500	          0.84508100	          0.00600000	         -0.24548800	          0.00000000	         -0.26755400	          0.00000000	
          0.70300000	         16.72358200	         75.95896300	          2.11672100	          0.37346300	          0.00600000	         -0.15295900	          0.00000000	         -0.79467700	          0.00000000	       -118.88851600	        797.42917100	         21.72421300	          0.84514400	          0.00600000	         -0.24550000	          0.00000000	         -0.27559300	          0.00000000	
          0.70350000	         16.42844500	         74.50734200	          2.08635200	          0.37418000	          0.00600000	         -0.15300600	          0.00000000	         -0.78392000	          0.00000000	       -118.72985400	        797.89866900	         21.82235200	          0.84520500	          0.00600000	         -0.24551100	          0.00000000	         -0.28354300	          0.00000000	
          0.70400000	         16.13590700	         73.06984900	          2.05618100	          0.37491300	          0.00600000	         -0.15305500	          0.00000000	         -0.77322700	          0.00000000	       -118.56616500	        798.35215900	         21.91954400	          0.84526700	          0.00600000	         -0.24552200	          0.00000000	         -0.29140500	          0.00000000	
          0.70450000	         15.84597200	         71.64644500	          2.02621100	          0.37566200	          0.00600000	         -0.15310400	          0.00000000	         -0.76259900	          0.00000000	       -118.39748800	        798.78973800	         22.01579300	          0.84532800	          0.00600000	         -0.24553300	          0.00000000	         -0.29917600	          0.00000000	
          0.70500000	         15.55864000	         70.23708800	          1.99644700	          0.37642900	          0.00600000	         -0.15315400	          0.00000000	         -0.75203500	          0.00000000	       -118.22386300	        799.21150300	         22.11110500	          0.84538800	          0.00600000	         -0.24554400	          0.00000000	         -0.30685600	          0.00000000	
          0.70550000	         15.27391200	         68.84173800	          1.96689300	          0.37721300	          0.00600000	         -0.15320500	          0.00000000	         -0.74153800	          0.00000000	       -118.04532800	        799.61755400	         22.20548200	          0.84544700	          0.00600000	         -0.24555400	          0.00000000	         -0.31444500	          0.00000000	
          0.70600000	         14.99179000	         67.46035300	          1.93755000	          0.37801600	          0.00600000	         -0.15325600	          0.00000000	         -0.73110800	          0.00000000	       -117.86192600	        800.00799100	         22.29892800	          0.84550600	          0.00600000	         -0.24556500	          0.00000000	         -0.32194000	          0.00000000	
          0.70650000	         14.71227400	         66.09289000	          1.90842400	          0.37883900	          0.00600000	         -0.15330800	          0.00000000	         -0.72074500	          0.00000000	       -117.67369500	        800.38291400	         22.39144800	          0.84556500	          0.00600000	         -0.24557600	          0.00000000	         -0.32934100	          0.00000000	
          0.70700000	         14.43536300	         64.73930400	          1.87951800	          0.37968100	          0.00600000	         -0.15336100	          0.00000000	         -0.71045200	          0.00000000	       -117.48067800	        800.74242500	         22.48304500	          0.84562200	          0.00600000	         -0.24558600	          0.00000000	         -0.33664700	          0.00000000	
          0.70750000	         14.16105700	         63.39955100	          1.85083400	          0.38054500	          0.00600000	         -0.15341500	          0.00000000	         -0.70022800	          0.00000000	       -117.28291600	        801.08662600	         22.57372500	          0.84567900	          0.00600000	         -0.24559600	          0.00000000	         -0.34385800	          0.00000000	
          0.70800000	         13.88935300	         62.07358400	          1.82237500	          0.38143000	          0.00600000	         -0.15347000	          0.00000000	         -0.69007400	          0.00000000	       -117.08045000	        801.41562100	         22.66349100	          0.84573600	          0.00600000	         -0.24560600	          0.00000000	         -0.35097200	          0.00000000	
          0.70850000	         13.62025100	         60.76135900	          1.79414400	          0.38233900	          0.00600000	         -0.15352600	          0.00000000	         -0.67999200	          0.00000000	       -116.87332200	        801.72951300	         22.75234800	          0.84579200	          0.00600000	         -0.24561700	          0.00000000	         -0.35798900	          0.00000000	
